<?xml version="1.0" encoding="UTF-8" standalone="no"?>
<svg
   width="3.75in"
   height="2.25in"
   viewBox="0 0 270 162"
   version="1.1"
   id="svg4"
   sodipodi:docname="business-card-sans-guides.svg"
   inkscape:version="1.4.4 (dcaf3e7d9e, 2026-05-05)"
   xmlns:inkscape="http://www.inkscape.org/namespaces/inkscape"
   xmlns:sodipodi="http://sodipodi.sourceforge.net/DTD/sodipodi-0.dtd"
   xmlns="http://www.w3.org/2000/svg"
   xmlns:svg="http://www.w3.org/2000/svg"
   xmlns:rdf="http://www.w3.org/1999/02/22-rdf-syntax-ns#"
   xmlns:cc="http://creativecommons.org/ns#"
   xmlns:dc="http://purl.org/dc/elements/1.1/">
  <defs
     id="defs4" />
  <sodipodi:namedview
     id="namedview4"
     pagecolor="#ffffff"
     bordercolor="#000000"
     borderopacity="0.25"
     inkscape:showpageshadow="2"
     inkscape:pageopacity="0.0"
     inkscape:pagecheckerboard="0"
     inkscape:deskcolor="#d1d1d1"
     inkscape:document-units="in"
     inkscape:zoom="1.8101934"
     inkscape:cx="149.98398"
     inkscape:cy="80.10194"
     inkscape:window-width="1920"
     inkscape:window-height="1008"
     inkscape:window-x="0"
     inkscape:window-y="0"
     inkscape:window-maximized="1"
     inkscape:current-layer="artwork" />
  <title
     id="title1">AnEvergreene Business Card — Front</title>
  <desc
     id="desc1">Plantable seed-paper card for Botanical Paperworks. 2 x 3.5 in trim, 2.25 x 3.75 in with bleed. Single-sided. Cream seed paper background shows through (no fill).</desc>
  <g
     inkscape:groupmode="layer"
     inkscape:label="Artwork"
     id="artwork">
    <text
       x="129.1898"
       y="61.248131"
       font-family="'Great Vibes', cursive"
       font-size="53.6351px"
       fill="#013c1a"
       text-anchor="middle"
       id="text1"
       transform="scale(1.0260189,0.97464092)"
       style="stroke-width:0.893919"
       inkscape:label="AnEvergreene">AnEvergreene</text>
    <text
       x="17.12183"
       y="134.6499"
       font-family="Philosopher, Georgia, serif"
       font-style="italic"
       font-size="15px"
       fill="#013c1a"
       text-anchor="start"
       id="text2"
       style="stroke-width:1.5">softer, slower, seen</text>
    <text
       x="195.02197"
       y="151.63904"
       font-family="Philosopher, Georgia, serif"
       font-style="italic"
       font-size="15px"
       fill="#013c1a"
       text-anchor="start"
       id="text2-6"
       style="stroke-width:1.5"
       inkscape:transform-center-x="-3.6952032"
       inkscape:transform-center-y="-28.42464">plant me</text>
    <g
       transform="matrix(2.6804026,0,0,2.6804027,183.42946,58.463436)"
       id="g2">
      <path
         stroke="#013c1a"
         stroke-width="1"
         fill="none"
         d="m 4,4.5 h 7 m 1,0 h 2 m 1,0 h 1 m 1,0 h 2 m 3,0 h 7 m -25,1 h 1 m 5,0 h 1 m 2,0 h 1 m 1,0 h 2 m 1,0 h 1 m 1,0 h 1 m 1,0 h 1 m 5,0 h 1 m -25,1 h 1 m 1,0 h 3 m 1,0 h 1 m 1,0 h 2 m 1,0 h 1 m 1,0 h 1 m 1,0 h 1 m 2,0 h 1 m 1,0 h 3 m 1,0 h 1 m -25,1 h 1 m 1,0 h 3 m 1,0 h 1 m 2,0 h 1 m 1,0 h 4 m 3,0 h 1 m 1,0 h 3 m 1,0 h 1 m -25,1 h 1 m 1,0 h 3 m 1,0 h 1 m 3,0 h 2 m 2,0 h 1 m 3,0 h 1 m 1,0 h 3 m 1,0 h 1 m -25,1 h 1 m 5,0 h 1 m 1,0 h 4 m 1,0 h 2 m 3,0 h 1 m 5,0 h 1 m -25,1 h 7 m 1,0 h 1 m 1,0 h 1 m 1,0 h 1 m 1,0 h 1 m 1,0 h 1 m 1,0 h 7 m -16,1 h 2 m 1,0 h 1 m 2,0 h 1 m -16,1 h 1 m 1,0 h 1 m 3,0 h 2 m 7,0 h 1 m 3,0 h 1 m 2,0 h 1 m 1,0 h 1 m -24,1 h 2 m 1,0 h 2 m 2,0 h 4 m 3,0 h 2 m 1,0 h 2 m 1,0 h 1 m 1,0 h 2 m -25,1 h 1 m 1,0 h 1 m 2,0 h 2 m 2,0 h 3 m 1,0 h 1 m 1,0 h 1 m 4,0 h 3 m 1,0 h 1 m -25,1 h 1 m 1,0 h 1 m 2,0 h 1 m 1,0 h 2 m 1,0 h 3 m 1,0 h 3 m 1,0 h 1 m 2,0 h 1 m -21,1 h 2 m 3,0 h 2 m 3,0 h 2 m 1,0 h 3 m 1,0 h 2 m 4,0 h 1 m -23,1 h 2 m 4,0 h 1 m 1,0 h 1 m 1,0 h 2 m 1,0 h 2 m 1,0 h 2 m 3,0 h 2 m -25,1 h 2 m 1,0 h 1 m 1,0 h 3 m 1,0 h 1 m 2,0 h 1 m 2,0 h 2 m 1,0 h 1 m 2,0 h 2 m 1,0 h 1 m -23,1 h 3 m 2,0 h 1 m 2,0 h 3 m 2,0 h 1 m 1,0 h 1 m 1,0 h 3 m -22,1 h 3 m 3,0 h 3 m 3,0 h 1 m 2,0 h 6 m 2,0 h 1 m -16,1 h 1 m 1,0 h 1 m 4,0 h 2 m 3,0 h 1 m 3,0 h 1 m -25,1 h 7 m 1,0 h 5 m 1,0 h 1 m 1,0 h 1 m 1,0 h 1 m 1,0 h 1 m 3,0 h 1 m -25,1 h 1 m 5,0 h 1 m 2,0 h 2 m 3,0 h 3 m 3,0 h 1 m -21,1 h 1 m 1,0 h 3 m 1,0 h 1 m 2,0 h 4 m 2,0 h 6 m 2,0 h 1 m -24,1 h 1 m 1,0 h 3 m 1,0 h 1 m 6,0 h 1 m 1,0 h 1 m 1,0 h 1 m 2,0 h 1 m 1,0 h 2 m -24,1 h 1 m 1,0 h 3 m 1,0 h 1 m 1,0 h 1 m 1,0 h 2 m 4,0 h 1 m 2,0 h 3 m 1,0 h 2 m -25,1 h 1 m 5,0 h 1 m 2,0 h 1 m 2,0 h 1 m 1,0 h 1 m 1,0 h 2 m 1,0 h 2 m -21,1 h 7 m 1,0 h 2 m 2,0 h 1 m 3,0 h 2 m 3,0 h 1 m 2,0 h 1"
         id="path2" />
    </g>
  </g>
  <metadata
     id="metadata4">
    <rdf:RDF>
      <cc:Work
         rdf:about="">
        <dc:title>AnEvergreene Business Card — Front</dc:title>
      </cc:Work>
    </rdf:RDF>
  </metadata>
</svg>
